PathFileType	4	(X/Y/Z)	C:\Users\Willi\Documents\Github\OpenSimMatlabBasic\ExampleData\Trials\dynamic06\marker_experimental.trc
DataRate	CameraRate	NumFrames	NumMarkers	Units	OrigDataRate	OrigDataStartFrame	OrigNumFrames
150.000000	150.000000	2	179	mm	150.000000	288	330
Frame#	Time	LFHD			LBHD			RFHD			RBHD			C7			T10			CLAV			STRN			RBAK			LSHO			LUPA			LELB			LFRA			LWRB			LWRA			LFIN			RSHO			RUPA			RELB			RFRA			RWRB			RFIN			SACR			LASI			RASI			LT1			LT2			LT3			LS1			LS2			LS3			LHEE			LTOE			RT1			RT2			RT3			RS1			RS2			RS3			RHEE			RTOE			SACO			SACA			SACL			SACP			RWRA			LM5D			RM5D			LKNE			RKNE			LANK			RANK			LKJC			RKJC			LAJC			RAJC			LTHI			RTHI			LTIB			RTIB			P_ForcePlate1			P_ForcePlate2			P_ForcePlate3			funktRKJC			funktLKJC			funktRHIP			funktLHIP			LHJC			RHJC			LKNEshank			RKNEshank			LKJCshank			RKJCshank			LHF			COP_FP1			VECTIP_FP1			RawCentreFP1			COP_FP2			VECTIP_FP2			RawCentreFP2			COP_FP3			VECTIP_FP3			RawCentreFP3			LPelvisAngles			RPelvisAngles			LFootProgressAngles			RFootProgressAngles			LHipAngles			RHipAngles			LKneeAngles			RKneeAngles			LAnkleAngles			RAnkleAngles			LFFootAngles			RFFootAngles			LAbsAnkleAngle			RAbsAnkleAngle			RNeckAngles			LNeckAngles			RSpineAngles			LSpineAngles			LShoulderAngles			LElbowAngles			LWristAngles			RShoulderAngles			RElbowAngles			RWristAngles			RThoraxAngles			LThoraxAngles			RHeadAngles			LHeadAngles			LHipPower			LKneePower			LAnklePower			RHipPower			RKneePower			RAnklePower			LWaistPower			RWaistPower			LNeckPower			RNeckPower			LShoulderPower			RShoulderPower			LElbowPower			RElbowPower			LWristPower			RWristPower			F_ForcePlate1			F_ForcePlate2			F_ForcePlate3			LHipForce			RHipForce			LKneeForce			RKneeForce			LAnkleForce			RAnkleForce			LNormalisedGRF			RNormalisedGRF			LGroundReactionForce			RGroundReactionForce			LGRF			RGRF			LWaistForce			RWaistForce			LNeckForce			RNeckForce			LShoulderForce			RShoulderForce			LElbowForce			RElbowForce			LWristForce			RWristForce			Force_FP1			RawForceFP1			Force_FP2			RawForceFP2			Force_FP3			RawForceFP3			LHipMoment			RHipMoment			LKneeMoment			RKneeMoment			LAnkleMoment			RAnkleMoment			LGroundReactionMoment			RGroundReactionMoment			LWaistMoment			RWaistMoment			LNeckMoment			RNeckMoment			LShoulderMoment			RShoulderMoment			LElbowMoment			RElbowMoment			LWristMoment			RWristMoment			RawMomentFP1			RawMomentFP2			RawMomentFP3			
		X1	Y1	Z1	X2	Y2	Z2	X3	Y3	Z3	X4	Y4	Z4	X5	Y5	Z5	X6	Y6	Z6	X7	Y7	Z7	X8	Y8	Z8	X9	Y9	Z9	X10	Y10	Z10	X11	Y11	Z11	X12	Y12	Z12	X13	Y13	Z13	X14	Y14	Z14	X15	Y15	Z15	X16	Y16	Z16	X17	Y17	Z17	X18	Y18	Z18	X19	Y19	Z19	X20	Y20	Z20	X21	Y21	Z21	X22	Y22	Z22	X23	Y23	Z23	X24	Y24	Z24	X25	Y25	Z25	X26	Y26	Z26	X27	Y27	Z27	X28	Y28	Z28	X29	Y29	Z29	X30	Y30	Z30	X31	Y31	Z31	X32	Y32	Z32	X33	Y33	Z33	X34	Y34	Z34	X35	Y35	Z35	X36	Y36	Z36	X37	Y37	Z37	X38	Y38	Z38	X39	Y39	Z39	X40	Y40	Z40	X41	Y41	Z41	X42	Y42	Z42	X43	Y43	Z43	X44	Y44	Z44	X45	Y45	Z45	X46	Y46	Z46	X47	Y47	Z47	X48	Y48	Z48	X49	Y49	Z49	X50	Y50	Z50	X51	Y51	Z51	X52	Y52	Z52	X53	Y53	Z53	X54	Y54	Z54	X55	Y55	Z55	X56	Y56	Z56	X57	Y57	Z57	X58	Y58	Z58	X59	Y59	Z59	X60	Y60	Z60	X61	Y61	Z61	X62	Y62	Z62	X63	Y63	Z63	X64	Y64	Z64	X65	Y65	Z65	X66	Y66	Z66	X67	Y67	Z67	X68	Y68	Z68	X69	Y69	Z69	X70	Y70	Z70	X71	Y71	Z71	X72	Y72	Z72	X73	Y73	Z73	X74	Y74	Z74	X75	Y75	Z75	X76	Y76	Z76	X77	Y77	Z77	X78	Y78	Z78	X79	Y79	Z79	X80	Y80	Z80	X81	Y81	Z81	X82	Y82	Z82	X83	Y83	Z83	X84	Y84	Z84	X85	Y85	Z85	X86	Y86	Z86	X87	Y87	Z87	X88	Y88	Z88	X89	Y89	Z89	X90	Y90	Z90	X91	Y91	Z91	X92	Y92	Z92	X93	Y93	Z93	X94	Y94	Z94	X95	Y95	Z95	X96	Y96	Z96	X97	Y97	Z97	X98	Y98	Z98	X99	Y99	Z99	X100	Y100	Z100	X101	Y101	Z101	X102	Y102	Z102	X103	Y103	Z103	X104	Y104	Z104	X105	Y105	Z105	X106	Y106	Z106	X107	Y107	Z107	X108	Y108	Z108	X109	Y109	Z109	X110	Y110	Z110	X111	Y111	Z111	X112	Y112	Z112	X113	Y113	Z113	X114	Y114	Z114	X115	Y115	Z115	X116	Y116	Z116	X117	Y117	Z117	X118	Y118	Z118	X119	Y119	Z119	X120	Y120	Z120	X121	Y121	Z121	X122	Y122	Z122	X123	Y123	Z123	X124	Y124	Z124	X125	Y125	Z125	X126	Y126	Z126	X127	Y127	Z127	X128	Y128	Z128	X129	Y129	Z129	X130	Y130	Z130	X131	Y131	Z131	X132	Y132	Z132	X133	Y133	Z133	X134	Y134	Z134	X135	Y135	Z135	X136	Y136	Z136	X137	Y137	Z137	X138	Y138	Z138	X139	Y139	Z139	X140	Y140	Z140	X141	Y141	Z141	X142	Y142	Z142	X143	Y143	Z143	X144	Y144	Z144	X145	Y145	Z145	X146	Y146	Z146	X147	Y147	Z147	X148	Y148	Z148	X149	Y149	Z149	X150	Y150	Z150	X151	Y151	Z151	X152	Y152	Z152	X153	Y153	Z153	X154	Y154	Z154	X155	Y155	Z155	X156	Y156	Z156	X157	Y157	Z157	X158	Y158	Z158	X159	Y159	Z159	X160	Y160	Z160	X161	Y161	Z161	X162	Y162	Z162	X163	Y163	Z163	X164	Y164	Z164	X165	Y165	Z165	X166	Y166	Z166	X167	Y167	Z167	X168	Y168	Z168	X169	Y169	Z169	X170	Y170	Z170	X171	Y171	Z171	X172	Y172	Z172	X173	Y173	Z173	X174	Y174	Z174	X175	Y175	Z175	X176	Y176	Z176	X177	Y177	Z177	X178	Y178	Z178	X179	Y179	Z179	

289	1.92	1130.17529296875	1256.464965820312	316.0682373046876	1008.2216796875	1260.767333984375	269.4659118652344	1114.767700195312	1264.551391601562	429.1299133300782	977.2523803710938	1283.626098632812	432.6409301757813	938.5140380859375	1124.1865234375	358.4326477050782	908.8703002929688	975.2810668945312	364.0976257324219	1051.83349609375	1080.352294921875	359.3574523925782	1079.402465820312	1026.741333007812	360.4726257324219	909.9331665039062	1050.383056640625	449.7140502929688	996.1405639648438	1089.415283203125	218.9889068603516	956.875	897.1357421875	167.0074768066407	956.8923950195312	832.85009765625	153.4575500488282	967.1809692382812	760.4093627929688	135.0721740722657	1004.902038574219	638.447021484375	122.5049057006837	1075.08642578125	656.513916015625	125.7428131103516	1077.354858398438	600.9605102539062	93.81115722656259	984.2117919921874	1096.285278320312	498.1821289062501	964.9945678710936	990.4957275390625	548.82861328125	957.7870483398436	839.6976318359375	580.3115844726564	952.2258911132811	688.6926879882812	584.0765991210939	953.3872680664061	645.8842163085938	586.3997192382814	1014.752014160156	581.9117431640625	604.4735717773439	923.186767578125	775.6782836914062	381.3128662109376	1057.603515625	742.5608520507812	272.5747070312501	1055.467651367188	745.6447143554688	500.1860656738282	1002.016052246094	545.5882568359375	245.3241577148438	930.2431640625	447.6178894042969	262.0192871093751	995.3397216796875	445.7164001464844	264.4124145507814	883.1640625	230.3928833007813	263.1619873046876	771.8253784179688	179.3078002929688	279.1502685546876	910.136474609375	137.9162292480469	281.6569213867189	781.02783203125	65.87596130371095	345.373260498047	928.9102783203125	47.1519355773926	317.4894104003907	1094.56201171875	547.4409790039062	533.5568847656251	1099.218994140625	432.0970764160157	514.7438354492189	1143.349365234375	457.5180664062501	520.1173095703126	1139.555419921875	243.6889953613282	524.9486694335939	1074.252197265625	143.448226928711	493.6615295410157	1210.858276367188	176.4491271972657	521.7315673828126	1146.432495117188	48.76526641845706	439.2152709960939	1287.912963867188	71.61379241943362	499.5857543945314	957.3135375976562	767.6259765625	385.1305847167969	962.2745971679688	766.4498291015625	385.1930847167969	957.3613891601562	767.5569458007812	380.0322875976563	969.0819702148438	817.2361450195312	384.5692138671876	1025.922729492188	646.1011962890625	575.7108764648439	912.7206420898438	24.67573738098146	282.5955810546876	1268.682861328125	49.95522308349613	523.1536254882814	959.8363647460938	385.6720886230469	277.3334045410157	1156.750244140625	402.0601501464844	508.8955078125001	817.472900390625	64.23834228515626	302.824920654297	1167.421020507812	70.3886642456055	492.1373291015627	954.8055419921875	384.0618591308594	329.3109130859376	1156.280517578125	396.8066101074219	456.3921508789064	833.2045288085938	70.66961669921876	338.3575134277345	1189.899658203125	81.52693176269534	461.6586914062502	991.9256591796875	533.1580810546875	241.938201904297	1085.62353515625	546.9393310546875	543.0268554687501	859.1904907226562	222.088623046875	245.5641021728517	1120.549926757812	220.3828277587891	529.1535034179689	256.7200012207031	0.07899999618532701	396.4200134277344	-254.2699890136719	-0.2560999989509441	231.3000030517578	-950.1600341796875	1.404999971389795	394.6300048828124	0	0	0	0	0	0	0	0	0	0	0	0	1012.482971191406	681.5844116210938	335.6856994628907	1010.942932128906	682.4254760742188	437.6507873535157	961.65673828125	387.0675048828125	280.5493774414064	1146.516479492188	412.5512084960938	510.2057495117189	956.6209106445312	386.3919372558594	332.5469665527345	1155.35888671875	408.8756103515625	458.3150024414064	-0.2094690948724747	1.6352299451828	0.1023167222738265	256.7200012207031	0.07899999618532701	396.4200134277344	256.7200012207031	0.07899999618532701	396.4200134277344	256.7200012207031	0.07899999618532701	396.4200134277344	-254.2699890136719	-0.2560999989509441	231.3000030517578	-254.2699890136719	-0.2560999989509441	231.3000030517578	-254.2699890136719	-0.2560999989509441	231.3000030517578	-950.1600341796875	1.404999971389795	394.6300048828124	-950.1600341796875	1.404999971389795	394.6300048828124	-254.2699890136719	-0.2560999989509441	231.3000030517578	-13.34497928619385	0.7022360563278198	-0.6312047839164751	-13.34497928619385	-0.7022360563278198	0.6312047839164717	-8.397947311401367	-9.980997085571289	1.139814615249633	2.43244457244873	-18.90602111816406	-0.4420193433761582	-2.351784467697143	4.413003444671631	-1.864635229110718	-40.31682205200195	3.171303987503052	-2.411263942718511	-9.965773582458496	-23.80488395690918	3.620789051055908	-20.76040840148926	-39.4627685546875	3.25799822807312	-13.04038715362549	8.883395195007324	-1.609013438224794	3.979690790176392	18.88036155700684	1.131075143814086	-3.18055471858951e-15	-2.738711306753701e-31	-4.472654986989715e-15	3.975693398236886e-16	1.987846699118445e-16	1.807698117239844e-15	-18.63504791259766	0	-2.282135177812029e-15	-1.062533020973206	0	-1.301227663123204e-16	-4.824691295623778	9.381595611572266	-4.261178493499758	-4.82469129562378	-9.381595611572266	4.261178493499756	12.74983978271484	-0.7409445047378541	-1.343468904495238	12.74983978271484	0.7409445047378541	1.343468904495241	12.88620185852051	-9.19060230255127	12.84817218780518	-39.88755416870117	4.929859824401653e-14	-6.475093913146414e-15	-9.927628517150879	99.74429321289062	2.444152116775505	14.80558776855469	20.73892211914062	15.5007848739624	-34.2653694152832	2.817971550550524e-12	-4.196297497602991e-15	-0.2936452925205239	79.03376007080078	6.703824996948238	-0.586971163749695	0.4737361073493959	1.917418122291565	-0.5869711637496946	-0.4737361073493959	-1.917418122291565	6.036689281463622	-9.43353271484375	5.355652809143068	6.036689281463624	9.43353271484375	-5.355652809143066	-2.766058862385114e-34	-0.03688669204711914	2.258658467331929e-18	1.023699755093696e-34	0.01365151628851891	-8.359142863121316e-19	3.779234518674186e-35	0.005039786454290152	-3.085979174816311e-19	1.215464586578067e-33	0.1620879024267197	-9.925021544369537e-18	-9.842835079321737e-33	-1.312588214874268	8.03728477972155e-17	-7.089288925058349e-35	-0.009453899227082729	5.788843713954251e-19	nan	nan	nan	nan	nan	nan	nan	nan	nan	nan	nan	nan	-2.19843746977259e-34	-0.02931719459593296	1.795160426094469e-18	-1.599441771496337e-34	-0.02132930606603622	1.306043320090274e-18	7.724967734946402e-35	0.01030160672962666	-6.307914853756059e-19	-8.715840903018626e-36	-0.001162298256531358	7.117024197578382e-20	-6.539511387694094e-36	-0.0008720745099708438	5.339916286268952e-20	-4.159599280296461e-36	-0.0005547020700760186	3.396570572995035e-20	256.7200012207031	0.07899999618532701	396.4200134277344	-254.2699890136719	-0.2560999989509441	231.3000030517578	-950.1600341796875	1.404999971389795	394.6300048828124	-0.2094690948724747	1.635229825973511	0.1023167222738265	-0.2090186029672623	1.846767783164978	0.01077050715684877	0.05020784586668014	0.6612516641616821	0.0604569241404533	0.5800252556800842	0.8897100687026978	-0.3016073405742645	0.1593419313430786	-0.01036917604506016	0.02344934642314913	0.235769584774971	-0.3203668296337128	-0.04247052222490306	0	0	0	0	0	0	0	0	0	0	0	0	0	0	0	0	0	0	nan	nan	nan	nan	nan	nan	nan	nan	nan	nan	nan	nan	-0.1817077100276947	0.5243545174598694	0.01492736954241985	-0.08897425234317782	0.4603990614414215	0.2013302743434906	0.07725658267736435	0.2525667548179626	0.003856941126286977	0.09663232415914534	0.1885062605142593	0.0895615741610527	-0.01760222762823105	0.06899320334196091	-0.03041101433336735	-0.02191013284027577	0.04869739338755608	0.03806150332093239	256.7200012207031	0.07899999618532701	396.4200134277344	0	0	0	-254.2699890136719	-0.2560999989509441	231.3000030517578	0	0	0	-950.1600341796875	1.404999971389795	394.6300048828124	0	0	0	25.45486831665039	-1.004948735237119	36.78507614135742	-191.6943054199219	3.373540401458738	-44.94036102294924	14.54384517669678	1.77385985851288	16.89828109741211	142.8612670898438	2.897262573242193	83.69956970214845	6.983234405517578	1.177913784980774	1.034900903701783	2.990078449249267	3.622905969619751	2.15676498413086	nan	nan	nan	nan	nan	nan	nan	nan	nan	nan	nan	nan	nan	nan	nan	nan	nan	nan	-24.11272430419922	-2.45691466331482	-3.737478494644168	4.392822742462153	-6.44099426269531	42.56659698486328	11.14186096191406	-0.1154996901750562	3.693051576614381	15.60437870025635	0.2439217567443855	11.79798698425293	-1.329223275184632	-1.233714831457233e-15	1.429674625396728	-1.093463301658631	4.90042653379324e-16	2.408767700195312	0	0	0	0	0	0	0	0	0	
290	1.926666666666667	1138.626953125	1255.112426757812	317.1833190917969	1016.710388183594	1259.145263671875	270.4588928222657	1123.100341796875	1263.290161132812	430.2226562500001	985.552978515625	1282.09765625	433.5856018066407	947.2169799804688	1122.607788085938	359.5118103027344	917.5968627929688	973.7859497070312	365.1429748535157	1060.60205078125	1078.755493164062	360.4685668945313	1088.168701171875	1025.141479492188	361.5165100097657	918.6138305664062	1048.732543945312	450.6494750976563	1004.731323242188	1087.944458007812	220.0889434814454	966.2962036132812	895.6137084960938	167.5972290039063	966.860595703125	831.3292846679688	153.5143127441407	978.2562866210938	759.11279296875	134.5499877929688	1017.973205566406	638.0288696289062	120.9607391357423	1087.8310546875	657.1624145507812	124.4008560180665	1090.995727539062	601.7301025390625	92.24629974365243	992.8540649414061	1094.599853515625	499.2673645019532	973.2340698242186	988.7822875976562	549.77099609375	965.2688598632811	838.0072631835938	580.9454956054689	959.0246582031249	687.0145263671875	584.4779052734376	959.9840087890624	644.1992797851562	586.7147827148439	1020.907043457031	579.92724609375	605.0339355468751	931.8077392578125	774.2163696289062	382.2893676757813	1065.572875976562	741.1022338867188	272.9432373046876	1064.390625	743.7007446289062	500.6980590820313	1008.353271484375	544.5271606445312	245.7167968750001	935.7311401367188	447.2120971679688	262.6043395996095	1000.780517578125	444.709228515625	264.740936279297	885.7955322265625	230.522705078125	263.5540161132814	773.7777099609375	181.0835876464844	279.9599609375001	911.5360107421875	137.6409301757813	281.8375244140626	781.5994262695312	67.31751251220705	345.852752685547	929.0940551757812	47.14882659912112	317.619354248047	1101.151977539062	544.4364624023438	533.7064208984376	1105.033569335938	429.1620483398438	514.0521850585939	1149.312744140625	454.2236328125001	519.8844604492189	1152.428833007812	241.25537109375	525.0545043945314	1092.471923828125	137.8704223632813	493.5472412109376	1226.955322265625	177.3269805908203	522.7223510742189	1169.448852539062	46.00785827636722	440.0448303222658	1309.885131835938	75.9739685058594	501.0165100097658	965.8018188476562	766.12158203125	386.0351867675782	970.7608032226562	764.9356079101562	386.0744628906251	965.8283081054688	766.0634155273438	380.9365844726563	977.6652221679688	815.7097778320312	385.5310668945313	1032.584838867188	644.1217041015625	576.5105590820314	912.6245727539062	24.7241840362549	282.7785949707032	1291.589599609375	53.35820007324222	524.5183105468751	964.7774658203125	384.9898376464844	277.7462463378907	1162.347778320312	398.7578430175782	508.3301696777345	817.8629760742188	65.2987518310547	303.3287353515626	1189.087524414062	69.42276000976565	493.183319091797	959.930908203125	383.3795776367188	329.7413024902345	1162.154296875	393.8988647460938	455.7870483398439	833.838134765625	71.46204376220705	338.8001403808595	1211.2890625	81.54827117919925	462.8787231445314	998.1931762695312	532.0711059570312	242.434051513672	1092.281860351562	543.9336547851562	542.9725341796876	861.5977172851562	222.7819213867188	246.0660400390626	1134.610961914062	216.6934661865235	528.8382568359376	256.7200012207031	0.07899999618532701	396.4200134277344	-254.2699890136719	-0.2560999989509441	231.3000030517578	-950.1600341796875	1.404999971389795	394.6300048828124	0	0	0	0	0	0	0	0	0	0	0	0	1020.595458984375	680.0790405273438	336.1759033203126	1019.481872558594	680.7031860351562	438.1480712890626	966.6336669921875	386.0198364257812	280.7645874023439	1151.235473632812	410.2045898437501	509.7252197265626	961.8106079101562	385.3613891601562	332.7825317382814	1160.754150390625	406.7915649414062	457.936248779297	-0.2386299669742585	1.661641716957092	0.1203843802213668	256.7200012207031	0.07899999618532701	396.4200134277344	256.7200012207031	0.07899999618532701	396.4200134277344	256.7200012207031	0.07899999618532701	396.4200134277344	-254.2699890136719	-0.2560999989509441	231.3000030517578	-254.2699890136719	-0.2560999989509441	231.3000030517578	-254.2699890136719	-0.2560999989509441	231.3000030517578	-950.1600341796875	1.404999971389795	394.6300048828124	-950.1600341796875	1.404999971389795	394.6300048828124	-254.2699890136719	-0.2560999989509441	231.3000030517578	-13.45471668243408	0.4413242936134338	-0.5665398836135881	-13.45471668243408	-0.4413242936134338	0.5665398836135848	-8.910502433776855	-10.17498970031738	1.245804548263549	4.966662406921387	-18.94002532958984	-0.2491182684898359	-1.885722160339355	4.43877124786377	-1.798021674156189	-39.89963912963867	2.514715194702148	-2.434087276458745	-10.19811344146729	-23.83029174804688	3.611635446548462	-17.42327117919922	-39.82271194458008	2.483407020568848	-13.33025550842285	8.928759574890137	-1.656724333763125	4.42633056640625	19.39501571655273	1.296613812446594	1.590277359294756e-15	-1.192708045940846e-15	-3.62782009023354e-15	5.812154174092864e-31	-2.906077087046432e-31	-4.745984048739205e-15	-18.92879867553711	0	-2.318109270970118e-15	-0.6550803184509277	0	-8.022420151753575e-17	-4.711321830749511	9.444631576538086	-4.328634738922121	-4.711321830749513	-9.444631576538086	4.328634738922119	12.86553764343262	-0.478061467409134	-1.380150794982909	12.86553764343262	0.478061467409134	1.380150794982912	12.42280673980713	-9.629976272583008	13.03476715087891	-40.25435256958008	-2.832283886589071e-12	-5.724875082255731e-15	-9.914410591125488	99.91530609130859	2.117526292800896	15.09090995788574	20.57726287841797	15.40564918518066	-34.24129867553711	-7.951386944704542e-14	-4.988488361811876e-15	-0.2431122064590462	78.87690734863281	6.659048080444331	-0.5811764001846316	0.4694477021694184	1.889617085456848	-0.5811764001846311	-0.4694477021694184	-1.889617085456848	5.933502674102782	-9.494304656982422	5.406590461730959	5.933502674102784	9.494304656982422	-5.406590461730957	-3.222314473728318e-34	-0.04297107458114624	2.631219447086147e-18	1.333162859303595e-34	0.01777835190296173	-1.088610087603867e-18	3.412002881585454e-35	0.004550065845251083	-2.786111786648218e-19	1.463841726863249e-33	0.1952101588249207	-1.195317480829928e-17	-1.044788028544941e-32	-1.393273830413818	8.531341683760274e-17	-6.245055668073906e-35	-0.008328074589371681	5.099474944467219e-19	nan	nan	nan	nan	nan	nan	nan	nan	nan	nan	nan	nan	-2.118419595400316e-34	-0.02825011871755123	1.729820873149092e-18	-1.532882239797189e-34	-0.02044170349836349	1.251693337919505e-18	8.353840831042104e-35	0.01114023849368095	-6.821428706512256e-19	-6.251997915170145e-36	-0.0008337332401424646	5.105143719416104e-20	-5.939638262156079e-36	-0.0007920786156319082	4.850082706533415e-20	-3.471855101244261e-36	-0.0004629881586879492	2.834984832901619e-20	256.7200012207031	0.07899999618532701	396.4200134277344	-254.2699890136719	-0.2560999989509441	231.3000030517578	-950.1600341796875	1.404999971389795	394.6300048828124	-0.2386299669742585	1.661641836166382	0.1203843802213668	-0.2111115604639053	1.865149617195129	0.01626182161271558	0.03931130841374397	0.6737405061721802	0.07400593161582943	0.6034313440322876	0.8872009515762329	-0.3159825801849365	0.1617791801691055	-0.009626387618482111	0.0283163655549288	0.2161346822977066	-0.3573687970638275	-0.04658876359462733	0	0	0	0	0	0	0	0	0	0	0	0	0	0	0	0	0	0	nan	nan	nan	nan	nan	nan	nan	nan	nan	nan	nan	nan	-0.1860694885253906	0.5385571718215942	0.008967789821326677	-0.09279182553291324	0.4696771502494812	0.1996669173240661	0.07859674841165543	0.2591750621795654	0.001994645455852144	0.09805228561162947	0.1922735720872879	0.08918500691652298	-0.0175190083682537	0.07065785676240921	-0.03104854747653008	-0.02223153598606587	0.04970647022128105	0.03840290755033493	256.7200012207031	0.07899999618532701	396.4200134277344	0	0	0	-254.2699890136719	-0.2560999989509441	231.3000030517578	0	0	0	-950.1600341796875	1.404999971389795	394.6300048828124	0	0	0	31.66181182861327	-1.279173254966733	45.86530685424805	-221.1013336181641	3.356062173843381	-49.78454971313479	13.51861095428467	2.06869411468506	20.13565635681152	159.0571899414062	3.062952518463141	93.06185913085939	6.99658727645874	1.40618896484375	1.119506239891053	0.8383939862251278	4.025105953216553	2.301297426223754	nan	nan	nan	nan	nan	nan	nan	nan	nan	nan	nan	nan	nan	nan	nan	nan	nan	nan	-25.63084411621094	-2.481151342391968	-2.675791025161746	4.304522991180415	-6.50710868835449	42.37094879150391	11.21093368530273	-0.1201157718896864	3.697845458984376	15.7641716003418	0.2431632727384574	11.92175388336182	-1.333459258079529	1.241304593957693e-15	1.491393685340881	-1.140634298324585	1.81201938866314e-15	2.420519351959229	0	0	0	0	0	0	0	0	0	
